# xmcd CD database file
#
# Track frame offsets:
#	150
#	29603
#	47971
#	66228
#	84458
#	99927
#	117581
#	134358
#	166383
#	182015
#	205576
#	225286
#
# Disc length: 4437 seconds
#
# Revision: 0
# Processed by: cddbd v1.5.2PL0 Copyright (c) Steve Scherf et al.
# Submitted via: CDex 1.70beta2
#
DISCID=9e11530c
DTITLE=Opus One - tat's life
DYEAR=2002
DGENRE=Jazz
TTITLE0=sister sadie
TTITLE1=moonlight in vermont
TTITLE2=early autumn
TTITLE3=john brown's other body
TTITLE4=unforgettable
TTITLE5=the flintstones theme
TTITLE6=my baby just cares for me
TTITLE7=jalapeno dreams
TTITLE8=that's life
TTITLE9=it don't mean a thing
TTITLE10=sing, sing, sing
TTITLE11=just a gigolo
EXTD=YEAR: 2002
EXTT0=
EXTT1=
EXTT2=
EXTT3=
EXTT4=
EXTT5=
EXTT6=
EXTT7=
EXTT8=
EXTT9=
EXTT10=
EXTT11=
PLAYORDER=
